{
  "accessors": [
    {
      "bufferView": 2,
      "componentType": 5126,
      "count": 56418,
      "max": [
        1.192581057548523,
        8.579667091369629,
        1.5003770589828491
      ],
      "min": [
        -2.146399974822998,
        4.718553066253662,
        -0.8108429908752441
      ],
      "type": "VEC3"
    },
    {
      "bufferView": 2,
      "byteOffset": 677016,
      "componentType": 5126,
      "count": 56418,
      "max": [
        0.9999753832817078,
        1.0,
        0.999973475933075
      ],
      "min": [
        -0.9997581243515015,
        -0.9998637437820435,
        -0.9999709725379944
      ],
      "type": "VEC3"
    },
    {
      "bufferView": 1,
      "componentType": 5126,
      "count": 56418,
      "max": [
        0.9952300190925598,
        0.9993810057640076
      ],
      "min": [
        0.003447999944910407,
        0.0027660001069307327
      ],
      "type": "VEC2"
    },
    {
      "bufferView": 0,
      "componentType": 5125,
      "count": 300000,
      "type": "SCALAR"
    }
  ],
  "asset": {
    "extras": {
      "author": "Elvislkn (https://sketchfab.com/Elvislkn)",
      "license": "CC-BY-4.0 (http://creativecommons.org/licenses/by/4.0/)",
      "source": "https://sketchfab.com/3d-models/pez-carachama-pseudorinelepis-genibarbis-27a4897235a942778380222f81ad66e0",
      "title": "Pez Carachama - Pseudorinelepis genibarbis"
    },
    "generator": "Sketchfab-14.89.0",
    "version": "2.0"
  },
  "bufferViews": [
    {
      "buffer": 0,
      "byteLength": 1200000,
      "name": "floatBufferViews",
      "target": 34963
    },
    {
      "buffer": 0,
      "byteLength": 451344,
      "byteOffset": 1200000,
      "byteStride": 8,
      "name": "floatBufferViews",
      "target": 34962
    },
    {
      "buffer": 0,
      "byteLength": 1354032,
      "byteOffset": 1651344,
      "byteStride": 12,
      "name": "floatBufferViews",
      "target": 34962
    }
  ],
  "buffers": [
    {
      "byteLength": 3005376,
      "uri": "scene.bin"
    }
  ],
  "extensionsUsed": [
    "KHR_materials_unlit"
  ],
  "images": [
    {
      "uri": "textures/material_baseColor.jpeg"
    }
  ],
  "materials": [
    {
      "doubleSided": true,
      "extensions": {
        "KHR_materials_unlit": {}
      },
      "name": "material",
      "pbrMetallicRoughness": {
        "baseColorTexture": {
          "index": 0
        },
        "metallicFactor": 0.0
      }
    }
  ],
  "meshes": [
    {
      "name": "Object_0",
      "primitives": [
        {
          "attributes": {
            "NORMAL": 1,
            "POSITION": 0,
            "TEXCOORD_0": 2
          },
          "indices": 3,
          "material": 0,
          "mode": 4
        }
      ]
    }
  ],
  "nodes": [
    {
      "children": [
        1
      ],
      "matrix": [
        -0.16685955226421356,
        0.792633295059204,
        0.5864216685295107,
        0.0,
        0.5747116208076477,
        0.5614629387855531,
        -0.5953704118728637,
        0.0,
        -0.8011643886566162,
        0.2376801222562791,
        -0.5492210388183594,
        0.0,
        0.0,
        0.0,
        0.0,
        1.0
      ],
      "name": "Sketchfab_model"
    },
    {
      "children": [
        2
      ],
      "name": "sdc.obj.cleaner.materialmerger.gles"
    },
    {
      "mesh": 0,
      "name": "Object_2"
    }
  ],
  "samplers": [
    {
      "magFilter": 9729,
      "minFilter": 9987,
      "wrapS": 10497,
      "wrapT": 10497
    }
  ],
  "scene": 0,
  "scenes": [
    {
      "name": "Sketchfab_Scene",
      "nodes": [
        0
      ]
    }
  ],
  "textures": [
    {
      "sampler": 0,
      "source": 0
    }
  ]
}
