{
  "accessors": [
    {
      "bufferView": 2,
      "componentType": 5126,
      "count": 5500,
      "max": [
        592.0911865234375,
        180.03863525390625,
        525.0676879882813
      ],
      "min": [
        -522.8279418945313,
        -257.7429504394531,
        -463.7918395996094
      ],
      "type": "VEC3"
    },
    {
      "bufferView": 2,
      "byteOffset": 66000,
      "componentType": 5126,
      "count": 5500,
      "max": [
        0.9999998807907104,
        0.99996018409729,
        0.9997744560241699
      ],
      "min": [
        -0.9998652935028076,
        -0.99996018409729,
        -0.9999673366546631
      ],
      "type": "VEC3"
    },
    {
      "bufferView": 3,
      "componentType": 5126,
      "count": 5500,
      "max": [
        0.9996381998062134,
        0.999704122543335,
        0.9851772785186768,
        1.0
      ],
      "min": [
        -0.9888283610343933,
        -0.9997941255569458,
        -0.9846732020378113,
        -1.0
      ],
      "type": "VEC4"
    },
    {
      "bufferView": 1,
      "componentType": 5126,
      "count": 5500,
      "max": [
        0.829626202583313,
        0.9994914531707764
      ],
      "min": [
        0.0004664736916311085,
        0.0003866768383886665
      ],
      "type": "VEC2"
    },
    {
      "bufferView": 0,
      "componentType": 5125,
      "count": 20784,
      "type": "SCALAR"
    }
  ],
  "asset": {
    "extras": {
      "author": "violetaraffin (https://sketchfab.com/violetaraffin)",
      "license": "CC-BY-4.0 (http://creativecommons.org/licenses/by/4.0/)",
      "source": "https://sketchfab.com/3d-models/pez-texturizado-a-mano-215e746db8634697acf5bbea034d4369",
      "title": "Pez texturizado a mano"
    },
    "generator": "Sketchfab-12.66.0",
    "version": "2.0"
  },
  "bufferViews": [
    {
      "buffer": 0,
      "byteLength": 83136,
      "name": "floatBufferViews",
      "target": 34963
    },
    {
      "buffer": 0,
      "byteLength": 44000,
      "byteOffset": 83136,
      "byteStride": 8,
      "name": "floatBufferViews",
      "target": 34962
    },
    {
      "buffer": 0,
      "byteLength": 132000,
      "byteOffset": 127136,
      "byteStride": 12,
      "name": "floatBufferViews",
      "target": 34962
    },
    {
      "buffer": 0,
      "byteLength": 88000,
      "byteOffset": 259136,
      "byteStride": 16,
      "name": "floatBufferViews",
      "target": 34962
    }
  ],
  "buffers": [
    {
      "byteLength": 347136,
      "uri": "scene.bin"
    }
  ],
  "images": [
    {
      "uri": "textures/Material.001_baseColor.jpeg"
    },
    {
      "uri": "textures/Material.001_metallicRoughness.png"
    },
    {
      "uri": "textures/Material.001_normal.png"
    }
  ],
  "materials": [
    {
      "doubleSided": true,
      "name": "Material.001",
      "normalTexture": {
        "index": 2
      },
      "occlusionTexture": {
        "index": 1
      },
      "pbrMetallicRoughness": {
        "baseColorTexture": {
          "index": 0
        },
        "metallicFactor": 0.0,
        "metallicRoughnessTexture": {
          "index": 1
        },
        "roughnessFactor": 0.1236661585
      }
    }
  ],
  "meshes": [
    {
      "name": "Plane.013_Material.001_0",
      "primitives": [
        {
          "attributes": {
            "NORMAL": 1,
            "POSITION": 0,
            "TANGENT": 2,
            "TEXCOORD_0": 3
          },
          "indices": 4,
          "material": 0,
          "mode": 4
        }
      ]
    }
  ],
  "nodes": [
    {
      "children": [
        1
      ],
      "matrix": [
        1.0,
        0.0,
        0.0,
        0.0,
        0.0,
        2.220446049250313e-16,
        -1.0,
        0.0,
        0.0,
        1.0,
        2.220446049250313e-16,
        0.0,
        0.0,
        0.0,
        0.0,
        1.0
      ],
      "name": "Sketchfab_model"
    },
    {
      "children": [
        2
      ],
      "matrix": [
        1.0,
        0.0,
        0.0,
        0.0,
        0.0,
        0.0,
        1.0,
        0.0,
        0.0,
        -1.0,
        0.0,
        0.0,
        0.0,
        0.0,
        0.0,
        1.0
      ],
      "name": "fff5b443ab084b7c9a92fef600e85590.fbx"
    },
    {
      "children": [
        3
      ],
      "name": "RootNode"
    },
    {
      "children": [
        4
      ],
      "matrix": [
        -0.19190681290687936,
        -1.8353042580779118e-08,
        -0.028957690347873596,
        0.0,
        -0.028957690347874782,
        1.1883205270278837e-08,
        0.1919068129068797,
        0.0,
        -1.6374563468802318e-08,
        0.1940792948007571,
        -1.4488561345493692e-08,
        0.0,
        0.0,
        0.0,
        0.0,
        1.0
      ],
      "name": "Plane.013"
    },
    {
      "mesh": 0,
      "name": "Plane.013_Material.001_0"
    }
  ],
  "samplers": [
    {
      "magFilter": 9729,
      "minFilter": 9987,
      "wrapS": 10497,
      "wrapT": 10497
    }
  ],
  "scene": 0,
  "scenes": [
    {
      "name": "Sketchfab_Scene",
      "nodes": [
        0
      ]
    }
  ],
  "textures": [
    {
      "sampler": 0,
      "source": 0
    },
    {
      "sampler": 0,
      "source": 1
    },
    {
      "sampler": 0,
      "source": 2
    }
  ]
}
