{
  "accessors": [
    {
      "bufferView": 2,
      "componentType": 5126,
      "count": 24,
      "max": [
        1.0,
        1.0,
        1.0
      ],
      "min": [
        -1.0,
        -1.0,
        -1.0
      ],
      "type": "VEC3"
    },
    {
      "bufferView": 2,
      "byteOffset": 288,
      "componentType": 5126,
      "count": 24,
      "max": [
        1.0,
        1.0,
        1.0
      ],
      "min": [
        -1.0,
        -1.0,
        -1.0
      ],
      "type": "VEC3"
    },
    {
      "bufferView": 1,
      "componentType": 5126,
      "count": 24,
      "max": [
        0.7499567270278931,
        0.9999133944511414
      ],
      "min": [
        8.658754813950509e-05,
        8.660554885864258e-05
      ],
      "type": "VEC2"
    },
    {
      "bufferView": 0,
      "componentType": 5125,
      "count": 36,
      "type": "SCALAR"
    },
    {
      "bufferView": 2,
      "byteOffset": 576,
      "componentType": 5126,
      "count": 65532,
      "max": [
        7.962934970855713,
        3.98211669921875,
        3.3727362155914307
      ],
      "min": [
        -5.31738805770874,
        -5.982841491699219,
        -3.741588830947876
      ],
      "type": "VEC3"
    },
    {
      "bufferView": 2,
      "byteOffset": 786960,
      "componentType": 5126,
      "count": 65532,
      "max": [
        0.9999479651451111,
        1.0,
        0.9997431635856628
      ],
      "min": [
        -0.9998498558998108,
        -0.9999834895133972,
        -0.9998130202293396
      ],
      "type": "VEC3"
    },
    {
      "bufferView": 1,
      "byteOffset": 192,
      "componentType": 5126,
      "count": 65532,
      "max": [
        0.9993739724159241,
        0.9990370273590088
      ],
      "min": [
        0.0003100000030826777,
        0.0006660223007202148
      ],
      "type": "VEC2"
    },
    {
      "bufferView": 0,
      "byteOffset": 144,
      "componentType": 5125,
      "count": 277164,
      "type": "SCALAR"
    },
    {
      "bufferView": 2,
      "byteOffset": 1573344,
      "componentType": 5126,
      "count": 65532,
      "max": [
        7.844042778015137,
        3.964509963989258,
        3.6243841648101807
      ],
      "min": [
        -5.315871238708496,
        -5.957381248474121,
        -3.5535318851470947
      ],
      "type": "VEC3"
    },
    {
      "bufferView": 2,
      "byteOffset": 2359728,
      "componentType": 5126,
      "count": 65532,
      "max": [
        0.9999068379402161,
        0.9999955892562866,
        0.9998526573181152
      ],
      "min": [
        -0.9999524354934692,
        -0.9999322891235352,
        -0.999893844127655
      ],
      "type": "VEC3"
    },
    {
      "bufferView": 1,
      "byteOffset": 524448,
      "componentType": 5126,
      "count": 65532,
      "max": [
        0.9996790289878845,
        0.9996709823608398
      ],
      "min": [
        0.0003319999959785491,
        0.0004609823226928711
      ],
      "type": "VEC2"
    },
    {
      "bufferView": 0,
      "byteOffset": 1108800,
      "componentType": 5125,
      "count": 244302,
      "type": "SCALAR"
    },
    {
      "bufferView": 2,
      "byteOffset": 3146112,
      "componentType": 5126,
      "count": 65532,
      "max": [
        7.966176986694336,
        3.972980499267578,
        3.4964091777801514
      ],
      "min": [
        -5.315276145935059,
        -5.982373237609863,
        -4.625936031341553
      ],
      "type": "VEC3"
    },
    {
      "bufferView": 2,
      "byteOffset": 3932496,
      "componentType": 5126,
      "count": 65532,
      "max": [
        0.9999276995658875,
        0.9999971389770508,
        0.9998024106025696
      ],
      "min": [
        -0.9999220967292786,
        -0.9999426007270813,
        -0.9995720386505127
      ],
      "type": "VEC3"
    },
    {
      "bufferView": 1,
      "byteOffset": 1048704,
      "componentType": 5126,
      "count": 65532,
      "max": [
        0.9993339776992798,
        0.999701976776123
      ],
      "min": [
        0.000299000006634742,
        0.00047701597213745117
      ],
      "type": "VEC2"
    },
    {
      "bufferView": 0,
      "byteOffset": 2086008,
      "componentType": 5125,
      "count": 201834,
      "type": "SCALAR"
    },
    {
      "bufferView": 2,
      "byteOffset": 4718880,
      "componentType": 5126,
      "count": 65532,
      "max": [
        7.965476036071777,
        3.9801025390625,
        3.6523940563201904
      ],
      "min": [
        -5.31738805770874,
        -5.982841491699219,
        -4.701751708984375
      ],
      "type": "VEC3"
    },
    {
      "bufferView": 2,
      "byteOffset": 5505264,
      "componentType": 5126,
      "count": 65532,
      "max": [
        0.9999068379402161,
        1.0,
        0.9999473690986633
      ],
      "min": [
        -0.9997691512107849,
        -0.9999998211860657,
        -0.9999747276306152
      ],
      "type": "VEC3"
    },
    {
      "bufferView": 1,
      "byteOffset": 1572960,
      "componentType": 5126,
      "count": 65532,
      "max": [
        0.9996979832649231,
        0.999692976474762
      ],
      "min": [
        0.0003000000142492354,
        0.0006020069122314453
      ],
      "type": "VEC2"
    },
    {
      "bufferView": 0,
      "byteOffset": 2893344,
      "componentType": 5125,
      "count": 130332,
      "type": "SCALAR"
    },
    {
      "bufferView": 2,
      "byteOffset": 6291648,
      "componentType": 5126,
      "count": 16310,
      "max": [
        7.924304962158203,
        3.9329280853271484,
        3.6072540283203125
      ],
      "min": [
        -5.298333168029785,
        -5.9693403244018555,
        -4.21311092376709
      ],
      "type": "VEC3"
    },
    {
      "bufferView": 2,
      "byteOffset": 6487368,
      "componentType": 5126,
      "count": 16310,
      "max": [
        0.9998791813850403,
        0.9999668598175049,
        0.9996421933174133
      ],
      "min": [
        -0.9998444318771362,
        -0.9999067187309265,
        -0.9999747276306152
      ],
      "type": "VEC3"
    },
    {
      "bufferView": 1,
      "byteOffset": 2097216,
      "componentType": 5126,
      "count": 16310,
      "max": [
        0.9993799924850464,
        0.9996860027313232
      ],
      "min": [
        0.0005150000215508044,
        0.0004799962043762207
      ],
      "type": "VEC2"
    },
    {
      "bufferView": 0,
      "byteOffset": 3414672,
      "componentType": 5125,
      "count": 18855,
      "type": "SCALAR"
    },
    {
      "bufferView": 2,
      "byteOffset": 6683088,
      "componentType": 5126,
      "count": 65532,
      "max": [
        7.971673965454102,
        3.9731826782226563,
        3.5874640941619873
      ],
      "min": [
        -5.318635940551758,
        -5.947545051574707,
        -3.4193878173828125
      ],
      "type": "VEC3"
    },
    {
      "bufferView": 2,
      "byteOffset": 7469472,
      "componentType": 5126,
      "count": 65532,
      "max": [
        1.0,
        0.9999991059303284,
        0.9999018311500549
      ],
      "min": [
        -0.9999682307243347,
        -1.0,
        -0.9998660087585449
      ],
      "type": "VEC3"
    },
    {
      "bufferView": 1,
      "byteOffset": 2227696,
      "componentType": 5126,
      "count": 65532,
      "max": [
        1.999688982963562,
        0.9997029900550842
      ],
      "min": [
        1.0003180503845215,
        0.0005080103874206543
      ],
      "type": "VEC2"
    },
    {
      "bufferView": 0,
      "byteOffset": 3490092,
      "componentType": 5125,
      "count": 251067,
      "type": "SCALAR"
    },
    {
      "bufferView": 2,
      "byteOffset": 8255856,
      "componentType": 5126,
      "count": 65532,
      "max": [
        7.8859710693359375,
        3.959737777709961,
        3.6404800415039063
      ],
      "min": [
        -5.311821937561035,
        -5.922724723815918,
        -3.890981912612915
      ],
      "type": "VEC3"
    },
    {
      "bufferView": 2,
      "byteOffset": 9042240,
      "componentType": 5126,
      "count": 65532,
      "max": [
        0.9999094605445862,
        0.9999834299087524,
        0.999912679195404
      ],
      "min": [
        -0.9999626874923706,
        -0.9999845027923584,
        -0.9998748898506165
      ],
      "type": "VEC3"
    },
    {
      "bufferView": 1,
      "byteOffset": 2751952,
      "componentType": 5126,
      "count": 65532,
      "max": [
        1.9996930360794067,
        0.9996960163116455
      ],
      "min": [
        1.0003039836883545,
        0.0004519820213317871
      ],
      "type": "VEC2"
    },
    {
      "bufferView": 0,
      "byteOffset": 4494360,
      "componentType": 5125,
      "count": 210516,
      "type": "SCALAR"
    },
    {
      "bufferView": 2,
      "byteOffset": 9828624,
      "componentType": 5126,
      "count": 65534,
      "max": [
        7.782403945922852,
        3.9801025390625,
        3.6281020641326904
      ],
      "min": [
        -5.312399387359619,
        -5.982841491699219,
        -4.306905746459961
      ],
      "type": "VEC3"
    },
    {
      "bufferView": 2,
      "byteOffset": 10615032,
      "componentType": 5126,
      "count": 65534,
      "max": [
        0.9998100399971008,
        0.999991238117218,
        0.9999204277992249
      ],
      "min": [
        -0.9999828338623047,
        -0.9999799132347107,
        -0.9999119639396667
      ],
      "type": "VEC3"
    },
    {
      "bufferView": 1,
      "byteOffset": 3276208,
      "componentType": 5126,
      "count": 65534,
      "max": [
        1.999688982963562,
        0.9996870160102844
      ],
      "min": [
        1.000309944152832,
        0.00044798851013183594
      ],
      "type": "VEC2"
    },
    {
      "bufferView": 0,
      "byteOffset": 5336424,
      "componentType": 5125,
      "count": 161559,
      "type": "SCALAR"
    },
    {
      "bufferView": 2,
      "byteOffset": 11401440,
      "componentType": 5126,
      "count": 65533,
      "max": [
        7.905129909515381,
        3.9714927673339844,
        3.6523940563201904
      ],
      "min": [
        -5.314105033874512,
        -5.982841491699219,
        -4.701751708984375
      ],
      "type": "VEC3"
    },
    {
      "bufferView": 2,
      "byteOffset": 12187836,
      "componentType": 5126,
      "count": 65533,
      "max": [
        0.9999021887779236,
        0.9999990463256836,
        0.9999719858169556
      ],
      "min": [
        -1.0,
        -0.9999654293060303,
        -0.9996095895767212
      ],
      "type": "VEC3"
    },
    {
      "bufferView": 1,
      "byteOffset": 3800480,
      "componentType": 5126,
      "count": 65533,
      "max": [
        1.9996980428695679,
        0.9997000098228455
      ],
      "min": [
        1.0002989768981934,
        0.00046497583389282227
      ],
      "type": "VEC2"
    },
    {
      "bufferView": 0,
      "byteOffset": 5982660,
      "componentType": 5125,
      "count": 115575,
      "type": "SCALAR"
    },
    {
      "bufferView": 2,
      "byteOffset": 12974232,
      "componentType": 5126,
      "count": 21788,
      "max": [
        7.966176986694336,
        3.98211669921875,
        3.440653085708618
      ],
      "min": [
        -5.314652919769287,
        -5.979475021362305,
        -4.648860931396484
      ],
      "type": "VEC3"
    },
    {
      "bufferView": 2,
      "byteOffset": 13235688,
      "componentType": 5126,
      "count": 21788,
      "max": [
        0.9999247193336487,
        1.0,
        0.9996777772903442
      ],
      "min": [
        -0.9997778534889221,
        -0.9999997019767761,
        -0.999970555305481
      ],
      "type": "VEC3"
    },
    {
      "bufferView": 1,
      "byteOffset": 4324744,
      "componentType": 5126,
      "count": 21788,
      "max": [
        1.9997010231018066,
        0.9996560215950012
      ],
      "min": [
        1.0003010034561157,
        0.0006510019302368164
      ],
      "type": "VEC2"
    },
    {
      "bufferView": 0,
      "byteOffset": 6444960,
      "componentType": 5125,
      "count": 27885,
      "type": "SCALAR"
    }
  ],
  "asset": {
    "extras": {
      "author": "Eduteiment (https://sketchfab.com/camiloislas)",
      "license": "CC-BY-4.0 (http://creativecommons.org/licenses/by/4.0/)",
      "source": "https://sketchfab.com/3d-models/pez-leon-luna-c73eb0f8f7fd4f3b858e7e5e485ca5e0",
      "title": "Pez león luna"
    },
    "generator": "Sketchfab-14.32.1",
    "version": "2.0"
  },
  "bufferViews": [
    {
      "buffer": 0,
      "byteLength": 6556500,
      "name": "floatBufferViews",
      "target": 34963
    },
    {
      "buffer": 0,
      "byteLength": 4499048,
      "byteOffset": 6556500,
      "byteStride": 8,
      "name": "floatBufferViews",
      "target": 34962
    },
    {
      "buffer": 0,
      "byteLength": 13497144,
      "byteOffset": 11055548,
      "byteStride": 12,
      "name": "floatBufferViews",
      "target": 34962
    }
  ],
  "buffers": [
    {
      "byteLength": 24552692,
      "uri": "scene.bin"
    }
  ],
  "images": [
    {
      "uri": "textures/Material_001_emissive.jpeg"
    },
    {
      "uri": "textures/Q11651_1all_7_tex0_emissive.jpeg"
    },
    {
      "uri": "textures/Q11651_1all_7_tex1_emissive.jpeg"
    }
  ],
  "materials": [
    {
      "alphaMode": "BLEND",
      "doubleSided": true,
      "emissiveFactor": [
        1.0,
        1.0,
        1.0
      ],
      "emissiveTexture": {
        "index": 0
      },
      "name": "Material_001",
      "pbrMetallicRoughness": {
        "baseColorFactor": [
          0.0,
          0.0,
          0.0,
          0.0
        ]
      }
    },
    {
      "doubleSided": true,
      "emissiveFactor": [
        1.0,
        1.0,
        1.0
      ],
      "emissiveTexture": {
        "index": 1
      },
      "name": "Q11651_1all_7_tex0",
      "pbrMetallicRoughness": {
        "baseColorFactor": [
          0.0,
          0.0,
          0.0,
          1.0
        ]
      }
    },
    {
      "doubleSided": true,
      "emissiveFactor": [
        1.0,
        1.0,
        1.0
      ],
      "emissiveTexture": {
        "index": 2
      },
      "name": "Q11651_1all_7_tex1",
      "pbrMetallicRoughness": {
        "baseColorFactor": [
          0.0,
          0.0,
          0.0,
          1.0
        ]
      }
    }
  ],
  "meshes": [
    {
      "name": "Object_0",
      "primitives": [
        {
          "attributes": {
            "NORMAL": 1,
            "POSITION": 0,
            "TEXCOORD_0": 2
          },
          "indices": 3,
          "material": 0,
          "mode": 4
        }
      ]
    },
    {
      "name": "Object_1",
      "primitives": [
        {
          "attributes": {
            "NORMAL": 5,
            "POSITION": 4,
            "TEXCOORD_0": 6
          },
          "indices": 7,
          "material": 1,
          "mode": 4
        }
      ]
    },
    {
      "name": "Object_2",
      "primitives": [
        {
          "attributes": {
            "NORMAL": 9,
            "POSITION": 8,
            "TEXCOORD_0": 10
          },
          "indices": 11,
          "material": 1,
          "mode": 4
        }
      ]
    },
    {
      "name": "Object_3",
      "primitives": [
        {
          "attributes": {
            "NORMAL": 13,
            "POSITION": 12,
            "TEXCOORD_0": 14
          },
          "indices": 15,
          "material": 1,
          "mode": 4
        }
      ]
    },
    {
      "name": "Object_4",
      "primitives": [
        {
          "attributes": {
            "NORMAL": 17,
            "POSITION": 16,
            "TEXCOORD_0": 18
          },
          "indices": 19,
          "material": 1,
          "mode": 4
        }
      ]
    },
    {
      "name": "Object_5",
      "primitives": [
        {
          "attributes": {
            "NORMAL": 21,
            "POSITION": 20,
            "TEXCOORD_0": 22
          },
          "indices": 23,
          "material": 1,
          "mode": 4
        }
      ]
    },
    {
      "name": "Object_6",
      "primitives": [
        {
          "attributes": {
            "NORMAL": 25,
            "POSITION": 24,
            "TEXCOORD_0": 26
          },
          "indices": 27,
          "material": 2,
          "mode": 4
        }
      ]
    },
    {
      "name": "Object_7",
      "primitives": [
        {
          "attributes": {
            "NORMAL": 29,
            "POSITION": 28,
            "TEXCOORD_0": 30
          },
          "indices": 31,
          "material": 2,
          "mode": 4
        }
      ]
    },
    {
      "name": "Object_8",
      "primitives": [
        {
          "attributes": {
            "NORMAL": 33,
            "POSITION": 32,
            "TEXCOORD_0": 34
          },
          "indices": 35,
          "material": 2,
          "mode": 4
        }
      ]
    },
    {
      "name": "Object_9",
      "primitives": [
        {
          "attributes": {
            "NORMAL": 37,
            "POSITION": 36,
            "TEXCOORD_0": 38
          },
          "indices": 39,
          "material": 2,
          "mode": 4
        }
      ]
    },
    {
      "name": "Object_10",
      "primitives": [
        {
          "attributes": {
            "NORMAL": 41,
            "POSITION": 40,
            "TEXCOORD_0": 42
          },
          "indices": 43,
          "material": 2,
          "mode": 4
        }
      ]
    }
  ],
  "nodes": [
    {
      "children": [
        1
      ],
      "matrix": [
        1.0,
        0.0,
        0.0,
        0.0,
        0.0,
        2.220446049250313e-16,
        -1.0,
        0.0,
        0.0,
        1.0,
        2.220446049250313e-16,
        0.0,
        0.0,
        0.0,
        0.0,
        1.0
      ],
      "name": "Sketchfab_model"
    },
    {
      "children": [
        2
      ],
      "matrix": [
        0.009999999776482582,
        0.0,
        0.0,
        0.0,
        0.0,
        2.2204459996194763e-18,
        0.009999999776482582,
        0.0,
        0.0,
        -0.009999999776482582,
        2.2204459996194763e-18,
        0.0,
        0.0,
        0.0,
        0.0,
        1.0
      ],
      "name": "USDRoot"
    },
    {
      "children": [
        3
      ],
      "name": "scene"
    },
    {
      "children": [
        4
      ],
      "matrix": [
        30.305784225463867,
        0.0,
        0.0,
        0.0,
        0.0,
        30.305784225463867,
        0.0,
        0.0,
        0.0,
        0.0,
        30.305784225463867,
        0.0,
        0.0,
        0.0,
        0.0,
        1.0
      ],
      "name": "Meshes"
    },
    {
      "children": [
        5
      ],
      "matrix": [
        1.0,
        0.0,
        0.0,
        0.0,
        0.0,
        2.220446049250313e-16,
        -1.0,
        0.0,
        0.0,
        1.0,
        2.220446049250313e-16,
        0.0,
        0.0,
        0.0,
        0.0,
        1.0
      ],
      "name": "Sketchfab_model"
    },
    {
      "children": [
        6
      ],
      "name": "root"
    },
    {
      "children": [
        7,
        10
      ],
      "matrix": [
        1.0,
        0.0,
        0.0,
        0.0,
        0.0,
        2.220446049250313e-16,
        1.0,
        0.0,
        0.0,
        -1.0,
        2.220446049250313e-16,
        0.0,
        0.0,
        0.0,
        0.0,
        1.0
      ],
      "name": "GLTF_SceneRootNode"
    },
    {
      "children": [
        8
      ],
      "matrix": [
        -0.00034848996438086033,
        -0.1881386637687683,
        0.0006710502784699202,
        0.0,
        0.0008685759385116398,
        -0.0006726532592438161,
        -0.1881370097398758,
        0.0,
        0.18813788890838623,
        -0.00034538606996648014,
        0.000869814888574183,
        0.0,
        7.058549880981445,
        -1.94132399559021,
        -0.00019180652452632785,
        1.0
      ],
      "name": "Cube_2"
    },
    {
      "children": [
        9
      ],
      "name": "Object_4"
    },
    {
      "mesh": 0,
      "name": "Object_0"
    },
    {
      "children": [
        11,
        13,
        15,
        17,
        19,
        21,
        23,
        25,
        27,
        29
      ],
      "matrix": [
        0.9541681408882141,
        -0.06265583634376526,
        -0.2926386296749115,
        0.0,
        0.29690930247306824,
        0.07558675110340118,
        0.9519094228744507,
        0.0,
        -0.03752307966351509,
        -0.9951687455177307,
        0.09072557836771011,
        0.0,
        0.0,
        0.0,
        0.0,
        1.0
      ],
      "name": "Q11651_1all_7_5"
    },
    {
      "children": [
        12
      ],
      "name": "Object_6"
    },
    {
      "mesh": 1,
      "name": "Object_1"
    },
    {
      "children": [
        14
      ],
      "name": "Object_7"
    },
    {
      "mesh": 2,
      "name": "Object_2"
    },
    {
      "children": [
        16
      ],
      "name": "Object_8"
    },
    {
      "mesh": 3,
      "name": "Object_3"
    },
    {
      "children": [
        18
      ],
      "name": "Object_9"
    },
    {
      "mesh": 4,
      "name": "Object_4"
    },
    {
      "children": [
        20
      ],
      "name": "Object_10"
    },
    {
      "mesh": 5,
      "name": "Object_5"
    },
    {
      "children": [
        22
      ],
      "name": "Object_11"
    },
    {
      "mesh": 6,
      "name": "Object_6"
    },
    {
      "children": [
        24
      ],
      "name": "Object_12"
    },
    {
      "mesh": 7,
      "name": "Object_7"
    },
    {
      "children": [
        26
      ],
      "name": "Object_13"
    },
    {
      "mesh": 8,
      "name": "Object_8"
    },
    {
      "children": [
        28
      ],
      "name": "Object_14"
    },
    {
      "mesh": 9,
      "name": "Object_9"
    },
    {
      "children": [
        30
      ],
      "name": "Object_15"
    },
    {
      "mesh": 10,
      "name": "Object_10"
    }
  ],
  "samplers": [
    {
      "magFilter": 9729,
      "minFilter": 9987,
      "wrapS": 10497,
      "wrapT": 10497
    }
  ],
  "scene": 0,
  "scenes": [
    {
      "name": "Sketchfab_Scene",
      "nodes": [
        0
      ]
    }
  ],
  "textures": [
    {
      "sampler": 0,
      "source": 0
    },
    {
      "sampler": 0,
      "source": 1
    },
    {
      "sampler": 0,
      "source": 2
    }
  ]
}
